<?xml version="1.0" encoding="utf-8"?>
<!-- Generator: Adobe Illustrator 16.0.0, SVG Export Plug-In . SVG Version: 6.00 Build 0)  -->
<!DOCTYPE svg PUBLIC "-//W3C//DTD SVG 1.0//EN" "http://www.w3.org/TR/2001/REC-SVG-20010904/DTD/svg10.dtd">
<svg version="1.0" id="Layer_1" xmlns="http://www.w3.org/2000/svg" xmlns:xlink="http://www.w3.org/1999/xlink" x="0px" y="0px"
	 width="80px" height="80px" viewBox="10 10 80 80" enable-background="new 10 10 80 80" xml:space="preserve">
<path fill="#437175" d="M60.6,43.5c-0.2-0.2-0.4-0.3-0.7-0.3c-0.2,0-0.4,0.1-0.5,0.2V40c0-1-0.7-1.9-1.6-2c-0.4-0.3-1.8-1.6-2.2-7.2
	c0,0-0.2-0.7-0.7-0.7h-5.6c-0.1,0-0.2,0-0.2,0h-5.4c-0.5,0-0.7,0.7-0.7,0.7c-0.5,5.6-1.9,7-2.3,7.3c-0.8,0.3-1.4,1-1.4,2v20.2
	c0,1,0.7,1.9,1.6,2c0.6,0.6,1.7,2.3,2.1,7.1c0,0,0.2,0.7,0.7,0.7H49c0,0,0.1,0,0.2,0h5.6c0.5,0,0.7-0.7,0.7-0.7
	c0.4-4.9,1.4-6.5,2-7.1c1-0.1,1.9-1,1.9-2v-3.5c0.1,0,0.1,0,0.2,0c0.3,0,0.5-0.2,0.5-0.5v-4.9c0-0.1-0.1-0.2-0.1-0.3
	c-0.1-0.1-0.2-0.1-0.3-0.1c-0.1,0-0.1,0-0.2,0v-3.5c0.2,0.1,0.3,0.2,0.5,0.2c0.5,0,0.9-0.4,0.9-0.9v-2.4
	C60.9,43.9,60.8,43.7,60.6,43.5z M58.6,59.4c0,1-0.8,1.9-1.8,1.9h-15c-1,0-1.8-0.8-1.8-1.9V40.8c0-1,0.8-1.9,1.8-1.9h15
	c1,0,1.8,0.8,1.8,1.9V59.4L58.6,59.4z"/>
<circle fill="#437175" cx="50" cy="49.7" r="2.2"/>
<circle fill="#437175" cx="54.2" cy="51" r="1.4"/>
<circle fill="#437175" cx="51.4" cy="54.2" r="1.4"/>
<circle fill="#437175" cx="52.3" cy="45.9" r="1.4"/>
<circle fill="#437175" cx="50" cy="42.4" r="1.4"/>
<circle fill="#437175" cx="55.6" cy="47.7" r="1"/>
<circle fill="#437175" cx="55.6" cy="54.8" r="1"/>
<circle fill="#437175" cx="55.6" cy="44.5" r="1"/>
<circle fill="#437175" cx="53.3" cy="57.3" r="1"/>
<circle fill="#437175" cx="53.1" cy="42.7" r="0.7"/>
<circle fill="#437175" cx="56" cy="41.7" r="0.7"/>
<circle fill="#437175" cx="43.5" cy="41.7" r="0.7"/>
<circle fill="#437175" cx="41.6" cy="50" r="0.7"/>
<circle fill="#437175" cx="42.9" cy="57.6" r="0.7"/>
<circle fill="#437175" cx="56" cy="57.6" r="0.7"/>
<circle fill="#437175" cx="49.7" cy="57.6" r="0.7"/>
<circle fill="#437175" cx="57" cy="50" r="0.7"/>
<circle fill="#437175" cx="45.2" cy="51" r="1.4"/>
<circle fill="#437175" cx="48.1" cy="54.2" r="1.4"/>
<circle fill="#437175" cx="47.2" cy="45.9" r="1.4"/>
<circle fill="#437175" cx="43.9" cy="47.7" r="1"/>
<circle fill="#437175" cx="43.9" cy="54.8" r="1"/>
<circle fill="#437175" cx="43.9" cy="44.5" r="1"/>
<circle fill="#437175" cx="46.2" cy="57.3" r="1"/>
<circle fill="#437175" cx="46.3" cy="42.7" r="0.7"/>
</svg>
