<?xml version="1.0" encoding="utf-8"?>
<!-- Generator: Adobe Illustrator 16.0.0, SVG Export Plug-In . SVG Version: 6.00 Build 0)  -->
<!DOCTYPE svg PUBLIC "-//W3C//DTD SVG 1.0//EN" "http://www.w3.org/TR/2001/REC-SVG-20010904/DTD/svg10.dtd">
<svg version="1.0" id="Layer_1" xmlns="http://www.w3.org/2000/svg" xmlns:xlink="http://www.w3.org/1999/xlink" x="0px" y="0px"
	 width="80px" height="80px" viewBox="10 10 80 80" enable-background="new 10 10 80 80" xml:space="preserve">
<path fill="#437175" d="M57.3,74.5h-0.6v-2.7h-4.1v-4.5c0,0,0.5-0.6-0.1-1.2c0,0,1.2-3.4,0.1-8.4c0,0,0.9-0.7,0-1.6
	c0,0,3.3-4.6,0.8-7.4c0,0,0.6-0.6,0.1-1.3c0,0,0.6-0.7-0.1-1.5c0,0,0.8-0.6,0-1.2c0,0,0.5-1.3,1.4-0.2c1.2,1.6,4.7,0.9,4.2-1.5
	c-0.2-1-1.5-1.3-2.3-0.6c0,0-0.3-0.8,2.1-1.8c2.4-1,7.1-5.3,6.9-10.3c-0.2-5-2.3-8.3-7.2-8.2c0,0,0.6-4.2-4.2-4.6c0,0,0-3.6-4.3-3.6
	c-4.3,0-4.3,3.6-4.3,3.6c-4.8,0.4-4.2,4.6-4.2,4.6c-4.9-0.1-7,3.2-7.2,8.2c-0.2,5,4.5,9.3,6.9,10.3s2.1,1.8,2.1,1.8
	c-0.8-0.7-2.1-0.3-2.3,0.6c-0.4,2.4,3,3.1,4.2,1.5c0.9-1.2,1.4,0.2,1.4,0.2c-0.8,0.7,0,1.2,0,1.2c-0.7,0.8-0.1,1.5-0.1,1.5
	c-0.5,0.7,0.1,1.3,0.1,1.3c-2.5,2.8,0.8,7.4,0.8,7.4c-0.9,0.9,0,1.6,0,1.6c-1.1,5,0.1,8.4,0.1,8.4c-0.6,0.6-0.1,1.2-0.1,1.2V86h5.1
	c0,0,0-0.4,0-2.1h4.1v-2.7h0.6v2.7h6.9v-5.5h-4l0,2h2l0,0.6h-2.9l0-2.7h-4.2l0,1.2l-0.6,0v-1.2h-1.3v1.2h-0.6v-3.5h0.6v1.2h1.3v-1.2
	l0.6,0l0,1.2h4.2l0-2.7h2.9l0,0.6h-2l0,2h4v-5.5h-6.9V74.5z M50,15.9c0.5,0,1,0.4,1,1s-0.4,1-1,1s-1-0.4-1-1
	C49,16.3,49.5,15.9,50,15.9z M52.1,39.9c0,0-1.1-0.2-2.1-0.2c-1,0-2.1,0.2-2.1,0.2c1.4-1.1,0.9-2,0.4-2.3c-1.1-0.8-2.2,1.1-1.3,1.4
	c0.9,0.3-0.4,0.8-1.6,0.8c-2.1,0-6.9-4.1-5.6-10.4c0.5-2.5,3.5-2.8,4.5-1.4c0.2,0.2-0.3,0.7-0.6,0.4c-0.8-0.8-2.1-0.8-2,0.4
	c0.2,2.5,3.1,1.4,3.1,1.4s3.5-1.6,0.6-5.8c0,0,2,0.5,2.1-0.5c0.1-1-0.4-1-0.9-1.1c-0.5,0-1-1.1,0.2-2c0.8-0.7,1.4-0.4,2,0
	c0,0,0.4,0.3,1.2,0.3v0c0.8,0,1.2-0.3,1.2-0.3c0.5-0.4,1.1-0.7,2,0c1.1,1,0.7,2,0.2,2c-0.5,0-1,0.1-0.9,1.1c0.1,1,2.1,0.5,2.1,0.5
	c-2.9,4.2,0.6,5.8,0.6,5.8s2.9,1.1,3.1-1.4c0.1-1.2-1.2-1.2-2-0.4c-0.3,0.3-0.7-0.2-0.6-0.4c1-1.4,4-1.2,4.5,1.4
	c1.4,6.3-3.5,10.4-5.6,10.4c-1.2,0-2.6-0.4-1.6-0.8c0.9-0.3-0.2-2.3-1.3-1.4C51.3,37.9,50.7,38.9,52.1,39.9z"/>
</svg>
