<?xml version="1.0" encoding="utf-8"?>
<!-- Generator: Adobe Illustrator 16.0.0, SVG Export Plug-In . SVG Version: 6.00 Build 0)  -->
<!DOCTYPE svg PUBLIC "-//W3C//DTD SVG 1.1//EN" "http://www.w3.org/Graphics/SVG/1.1/DTD/svg11.dtd">
<svg version="1.1" id="Layer_1" xmlns="http://www.w3.org/2000/svg" xmlns:xlink="http://www.w3.org/1999/xlink" x="0px" y="0px"
	 width="80px" height="80px" viewBox="10 10 80 80" enable-background="new 10 10 80 80" xml:space="preserve">
<path fill="#437175" d="M55.991,69.967l-0.714-0.989l3.728-3.467l0.554-0.104c0.336,0.143,0.637,0.13,0.847-0.036
	c0.219-0.173,0.339-0.506,0.339-0.938V41.239c0-1.06-0.723-2.262-1.579-2.625l-0.021-0.01l-15.405-7.323
	c-1.22-0.041-2.46,0.495-3.34,1.444c-0.737,0.796-1.144,1.813-1.144,2.864v0.64h-1.127v-0.64c0-1.405,0.531-2.751,1.494-3.792
	c1.122-1.211,2.72-1.88,4.269-1.79l0.189,0.049l15.488,7.363c1.292,0.555,2.302,2.229,2.302,3.819v23.193
	c0,0.852-0.3,1.577-0.824,1.989c-0.434,0.342-0.987,0.443-1.56,0.295L55.991,69.967z"/>
<path fill="#437175" d="M38.275,36.157V59.35c0,1.292,0.853,2.705,1.9,3.149l14.798,7.368C55.179,69.955,55.384,70,55.578,70
	c0.744,0,1.243-0.656,1.243-1.634V45.174c0-1.292-0.853-2.705-1.9-3.149l-1.306-0.65c-0.247,0.244-0.689,0.871-0.689,2.254v8.957
	l-2.535-4.038l-1.867,1.799c0,0-0.023-5.578-0.006-8.038c-0.005-1.623,0.28-2.692,0.746-3.102l-9.141-4.553
	c-0.205-0.087-0.41-0.131-0.604-0.131C38.774,34.524,38.275,35.18,38.275,36.157z"/>
<path fill="#437175" d="M38.759,34.718c-0.241,0.21-0.419,0.526-0.502,0.924C38.37,35.357,38.552,35.036,38.759,34.718z"/>
</svg>
