<?xml version="1.0" encoding="utf-8"?>
<!-- Generator: Adobe Illustrator 16.0.0, SVG Export Plug-In . SVG Version: 6.00 Build 0)  -->
<!DOCTYPE svg PUBLIC "-//W3C//DTD SVG 1.0//EN" "http://www.w3.org/TR/2001/REC-SVG-20010904/DTD/svg10.dtd">
<svg version="1.0" id="Layer_1" xmlns="http://www.w3.org/2000/svg" xmlns:xlink="http://www.w3.org/1999/xlink" x="0px" y="0px"
	 width="80px" height="80px" viewBox="0 0 80 80" enable-background="new 0 0 80 80" xml:space="preserve">
<path fill="#FFFFFF" d="M28.7,39.1c3.4-7.3,8.2-13.7,14.2-18.9C41.9,20.1,41,20,40,20c-6.3,0-11.9,2.9-15.6,7.4
	C25.4,31.5,26.9,35.4,28.7,39.1z"/>
<path fill="#FFFFFF" d="M35.1,29.8c8-0.7,16,0.3,23.5,2.8c-2.6-6.5-8.4-11.3-15.5-12.4C40.1,23.1,37.4,26.3,35.1,29.8z"/>
<path fill="#FFFFFF" d="M33.6,49.4c-2.1-2.9-3.8-6-5.3-9.2L28.3,40l0,0c-1.8-4-3.1-8.1-4-12.4C21.6,31,20,35.3,20,40
	c0,2.5,0.5,5,1.3,7.2C25.4,48.4,29.5,49.1,33.6,49.4z"/>
<path fill="#FFFFFF" d="M46.4,30.6c4.6,6.6,7.8,14,9.3,21.7C58.4,49,60,44.7,60,40c0-2.5-0.5-5-1.3-7.2
	C54.6,31.6,50.5,30.9,46.4,30.6z"/>
<path fill="#FFFFFF" d="M44.9,50.2c-3.5,0.3-7,0.3-10.4,0h-0.3l0,0c-4.3-0.4-8.6-1.4-12.7-2.8c2.6,6.5,8.4,11.3,15.5,12.4
	C39.9,56.9,42.6,53.7,44.9,50.2z"/>
<path fill="#FFFFFF" d="M51.3,40.9c-1.5,3.2-3.3,6.3-5.4,9.2l-0.1,0.1h0c-2.5,3.5-5.5,6.7-8.7,9.6C38.1,59.9,39,60,40,60
	c6.3,0,11.9-2.9,15.6-7.4C54.6,48.5,53.1,44.6,51.3,40.9z"/>
</svg>
