<?xml version="1.0" encoding="utf-8"?>
<!-- Generator: Adobe Illustrator 16.0.0, SVG Export Plug-In . SVG Version: 6.00 Build 0)  -->
<!DOCTYPE svg PUBLIC "-//W3C//DTD SVG 1.0//EN" "http://www.w3.org/TR/2001/REC-SVG-20010904/DTD/svg10.dtd">
<svg version="1.0" id="Layer_1" xmlns="http://www.w3.org/2000/svg" xmlns:xlink="http://www.w3.org/1999/xlink" x="0px" y="0px"
	 width="100px" height="100px" viewBox="0 0 100 100" enable-background="new 0 0 100 100" xml:space="preserve">
<g>
	<g>
		<g>
			<path fill="#FFFFFF" d="M50,83.3c-18.4,0-33.3-15-33.3-33.3s15-33.3,33.3-33.3c18.4,0,33.3,15,33.3,33.3S68.4,83.3,50,83.3z
				 M50,20.9c-16.1,0-29.1,13-29.1,29.1c0,16.1,13,29.1,29.1,29.1c16.1,0,29.1-13,29.1-29.1C79.1,33.9,66.1,20.9,50,20.9z"/>
		</g>
	</g>
	<path fill="#FFFFFF" d="M65.7,49.8c0-0.1,0-0.2,0-0.3c0-6.8-5.5-12.3-12.3-12.3c-5.3,0-9.7,3.3-11.5,7.9c-0.7-0.9-1.8-1.4-3-1.4
		c-2.1,0-3.9,1.7-3.9,3.9c0,0.9,0.3,1.7,0.8,2.4c-0.2-0.1-0.5-0.1-0.8-0.1c-3.3,0-6,2.7-6,6c0,3.1,2.4,5.7,5.4,6l0,0h15.6v-7.6h-3.4
		l7.1-7.1l7.1,7.1h-3.4v7.6h8c3.3,0,6-2.7,6-6C71.5,52.5,68.9,49.9,65.7,49.8z"/>
</g>
</svg>
