<?xml version="1.0" encoding="utf-8"?>
<!-- Generator: Adobe Illustrator 16.0.0, SVG Export Plug-In . SVG Version: 6.00 Build 0)  -->
<!DOCTYPE svg PUBLIC "-//W3C//DTD SVG 1.1//EN" "http://www.w3.org/Graphics/SVG/1.1/DTD/svg11.dtd">
<svg version="1.1" id="Layer_1" xmlns="http://www.w3.org/2000/svg" xmlns:xlink="http://www.w3.org/1999/xlink" x="0px" y="0px"
	 width="80px" height="80px" viewBox="10 10 80 80" enable-background="new 10 10 80 80" xml:space="preserve">
<g>
	<g>
		<path fill="#437175" d="M61.079,45.225c0.253-0.82-0.051-1.719-0.775-2.208c0.87-2.137,1.363-3.051,1.363-5.038
			c0-6.519-5.285-7.978-11.802-7.978c-6.519,0-11.802,1.459-11.802,7.978c0,1.993,0.498,2.922,1.372,5.071
			c-0.729,0.516-1.011,1.462-0.693,2.299c-1.232,1.436-2.193,3.11-2.81,4.947l0.014-0.003c-0.523,1.513-0.81,3.146-0.81,4.844
			C35.136,63.347,41.79,70,50,70s14.864-6.653,14.864-14.864C64.864,51.327,63.433,47.856,61.079,45.225z M49.865,34.266
			c3.55,0,6.441,0.156,6.441,3.711c0,1.02-0.245,0.993-0.666,2.296c-0.703-0.265-1.476-0.103-2.017,0.383
			c-1.17-0.301-2.399-0.46-3.661-0.46c-1.303,0-2.564,0.172-3.768,0.49c-0.554-0.522-1.368-0.696-2.099-0.392
			c-0.429-1.315-0.676-1.294-0.676-2.317C43.42,34.422,46.312,34.266,49.865,34.266z"/>
	</g>
</g>
</svg>
