<?xml version="1.0" encoding="utf-8"?>
<!-- Generator: Adobe Illustrator 16.0.0, SVG Export Plug-In . SVG Version: 6.00 Build 0)  -->
<!DOCTYPE svg PUBLIC "-//W3C//DTD SVG 1.0//EN" "http://www.w3.org/TR/2001/REC-SVG-20010904/DTD/svg10.dtd">
<svg version="1.0" id="Your_Icon" xmlns="http://www.w3.org/2000/svg" xmlns:xlink="http://www.w3.org/1999/xlink" x="0px" y="0px"
	 width="80px" height="80px" viewBox="10 10 80 80" enable-background="new 10 10 80 80" xml:space="preserve">
<path fill="none" d="M41.2,40.4c0.2,0.1,0.4,0.2,0.6,0.2c0.3,0,0.5-0.1,0.7-0.2c0.2-0.1,0.3-0.3,0.4-0.5c0.1-0.2,0.1-0.4,0.1-0.6
	c0-0.7-0.6-1.3-1.3-1.3s-1.3,0.6-1.3,1.3c0,0.1,0,0.3,0.1,0.4C40.7,40,40.9,40.2,41.2,40.4z"/>
<path fill="none" d="M55.7,64.1c-0.1,0.2-0.1,0.4-0.1,0.6c0,0.7,0.6,1.3,1.3,1.3c0.7,0,1.3-0.6,1.3-1.3c0-0.3-0.1-0.5-0.2-0.7
	c-0.2-0.2-0.4-0.4-0.7-0.5c-0.1,0-0.3-0.1-0.4-0.1c-0.3,0-0.5,0.1-0.7,0.2C55.9,63.7,55.8,63.9,55.7,64.1z"/>
<path fill="none" d="M66.3,54.2l4.5-5.2c-0.3-0.1-0.5-0.3-0.7-0.5l-3.8,4.5V54.2z"/>
<path fill="none" d="M40.6,39.6l-3,2.6v1.3l3.6-3.2C40.9,40.2,40.7,40,40.6,39.6z"/>
<path fill="none" d="M57.9,64l4.4-5.2v-1.3l-5.1,6C57.6,63.5,57.8,63.7,57.9,64z"/>
<path fill="none" d="M42.6,40.3l5.5,9.9v-1.3l-5-9.1C42.9,40,42.8,40.2,42.6,40.3z"/>
<path fill="none" d="M56.1,63.6L52,56v1.3l3.7,6.8C55.8,63.9,55.9,63.7,56.1,63.6z"/>
<path fill="#437175" d="M41.8,40.5c-0.2,0-0.4-0.1-0.6-0.2l-3.6,3.2V80H48V50.2l-5.5-9.9C42.4,40.5,42.1,40.5,41.8,40.5z"/>
<path fill="#437175" d="M37.6,42.2l3-2.6c0-0.1-0.1-0.2-0.1-0.4c0-0.7,0.6-1.3,1.3-1.3s1.3,0.6,1.3,1.3c0,0.2-0.1,0.4-0.1,0.6l5,9.1
	V31.1H37.6V42.2z"/>
<path fill="#437175" d="M58.2,64.7c0,0.7-0.6,1.3-1.3,1.3c-0.7,0-1.3-0.6-1.3-1.3c0-0.2,0-0.4,0.1-0.6L52,57.4V80h10.4V58.8L57.9,64
	C58.1,64.2,58.2,64.4,58.2,64.7z"/>
<path fill="#437175" d="M52,56l4.2,7.6c0.2-0.1,0.5-0.2,0.7-0.2c0.2,0,0.3,0,0.4,0.1l5.1-6V20H52V56z"/>
<path fill="#437175" d="M66.3,80h11.1V54.9l-5.3-6.2c-0.2,0.2-0.5,0.3-0.9,0.3c-0.2,0-0.3,0-0.4-0.1l-4.5,5.2V80z"/>
<path fill="#437175" d="M77.4,53.6V38.9H66.3v14l3.8-4.5c-0.1-0.2-0.2-0.4-0.2-0.7c0-0.7,0.6-1.3,1.3-1.3c0.7,0,1.3,0.6,1.3,1.3
	c0,0.1,0,0.1,0,0.2L77.4,53.6z"/>
<path fill="#437175" d="M28.8,51.6c0,0.7-0.6,1.3-1.3,1.3s-1.3-0.6-1.3-1.3c0-0.3,0.1-0.6,0.3-0.8L22.6,41v39h11.1V46.9l-5,4.3
	C28.8,51.4,28.8,51.5,28.8,51.6z"/>
<path fill="#437175" d="M22.6,39.7l4.2,10.8c0.2-0.1,0.4-0.2,0.6-0.2c0.2,0,0.4,0.1,0.6,0.2l5.6-4.9V20H22.6V39.7z"/>
</svg>
