<?xml version="1.0" encoding="utf-8"?>
<!-- Generator: Adobe Illustrator 16.0.0, SVG Export Plug-In . SVG Version: 6.00 Build 0)  -->
<!DOCTYPE svg PUBLIC "-//W3C//DTD SVG 1.0//EN" "http://www.w3.org/TR/2001/REC-SVG-20010904/DTD/svg10.dtd">
<svg version="1.0" id="Layer_1" xmlns="http://www.w3.org/2000/svg" xmlns:xlink="http://www.w3.org/1999/xlink" x="0px" y="0px"
	 width="80px" height="80px" viewBox="10 10 80 80" enable-background="new 10 10 80 80" xml:space="preserve">
<path fill="#437175" d="M50,20c-16.6,0-30,13.4-30,30s13.4,30,30,30c16.6,0,30-13.4,30-30S66.6,20,50,20z M75.3,42.8
	c0.7,0,1.2,0.6,1.2,1.2s-0.6,1.3-1.2,1.3c-0.7,0-1.2-0.6-1.2-1.3S74.6,42.8,75.3,42.8z M50,42.6c3.1,0,5.6,2.5,5.6,5.6
	c0,1.9-0.9,3.6-2.4,4.6l0.9,7.5h-8.1l0.9-7.5c-1.4-1-2.4-2.7-2.4-4.6C44.4,45.1,46.9,42.6,50,42.6z M29.9,67.4
	c-0.7,0-1.2-0.6-1.2-1.2c0-0.7,0.6-1.3,1.2-1.3s1.2,0.6,1.2,1.3C31.2,66.8,30.6,67.4,29.9,67.4z M44.6,75.7
	c-0.1,0.6-0.7,0.9-1.2,0.9c-0.1,0-0.2,0-0.3,0c-4-1-7.8-3-10.9-5.7c-0.5-0.4-0.6-1.2-0.1-1.8c0.4-0.5,1.2-0.6,1.8-0.1
	c2.9,2.4,6.3,4.2,9.9,5.2C44.3,74.4,44.7,75.1,44.6,75.7z M50,77.5c-0.7,0-1.2-0.6-1.2-1.2c0-0.7,0.6-1.3,1.2-1.3
	c13.8,0,25-11.2,25-25c0-0.7,0.6-1.3,1.3-1.3c0.7,0,1.2,0.6,1.2,1.3C77.5,65.2,65.2,77.5,50,77.5z"/>
</svg>
