<?xml version="1.0" encoding="utf-8"?>
<!-- Generator: Adobe Illustrator 16.0.0, SVG Export Plug-In . SVG Version: 6.00 Build 0)  -->
<!DOCTYPE svg PUBLIC "-//W3C//DTD SVG 1.1//EN" "http://www.w3.org/Graphics/SVG/1.1/DTD/svg11.dtd">
<svg version="1.1" id="Layer_1" xmlns="http://www.w3.org/2000/svg" xmlns:xlink="http://www.w3.org/1999/xlink" x="0px" y="0px"
	 width="80px" height="80px" viewBox="10 10 80 80" enable-background="new 10 10 80 80" xml:space="preserve">
<path fill="#437175" d="M38.698,49.134c3.375-7.274,8.215-13.71,14.174-18.927C51.934,30.071,50.975,30,50,30
	c-6.288,0-11.898,2.904-15.564,7.442C35.426,41.503,36.859,45.422,38.698,49.134z"/>
<path fill="#437175" d="M45.099,39.779c7.988-0.714,15.984,0.261,23.482,2.813c-2.576-6.456-8.419-11.255-15.485-12.353
	C50.073,33.128,47.394,36.331,45.099,39.779z"/>
<path fill="#437175" d="M43.598,59.354c-2.051-2.916-3.813-6.002-5.274-9.213l-0.061-0.104l0.007-0.012
	c-1.797-3.973-3.13-8.136-3.977-12.406C31.605,41.024,30,45.324,30,50c0,2.538,0.474,4.965,1.336,7.198
	C35.35,58.372,39.463,59.091,43.598,59.354z"/>
<path fill="#437175" d="M56.401,40.646c4.611,6.558,7.765,13.969,9.304,21.737C68.394,58.978,70,54.677,70,50
	c0-2.538-0.475-4.965-1.336-7.199C64.648,41.629,60.536,40.909,56.401,40.646z"/>
<path fill="#437175" d="M54.9,60.221c-3.491,0.312-6.983,0.301-10.434-0.022H44.13l-0.019-0.033
	c-4.326-0.433-8.584-1.357-12.693-2.756c2.576,6.456,8.418,11.254,15.485,12.353C49.925,66.871,52.604,63.67,54.9,60.221z"/>
<path fill="#437175" d="M61.302,50.867c-1.506,3.245-3.303,6.324-5.361,9.202l-0.075,0.13h-0.019
	c-2.532,3.522-5.458,6.74-8.718,9.595C48.066,69.93,49.024,70,50,70c6.289,0,11.898-2.903,15.565-7.441
	C64.573,58.497,63.14,54.577,61.302,50.867z"/>
</svg>
